<mxfile host="65bd71144e">
    <diagram name="Page-1" id="4bKqCjDoiI2CQ0t6_YFZ">
        <mxGraphModel dx="832" dy="611" grid="1" gridSize="10" guides="1" tooltips="1" connect="1" arrows="1" fold="1" page="1" pageScale="1" pageWidth="850" pageHeight="1100" math="0" shadow="0">
            <root>
                <mxCell id="0"/>
                <mxCell id="1" parent="0"/>
                <mxCell id="6Gc_-QKsgriGWGeuzHfJ-2" style="edgeStyle=orthogonalEdgeStyle;rounded=0;orthogonalLoop=1;jettySize=auto;html=1;exitX=0.5;exitY=1;exitDx=0;exitDy=0;" parent="1" source="6Gc_-QKsgriGWGeuzHfJ-1" target="6Gc_-QKsgriGWGeuzHfJ-3" edge="1">
                    <mxGeometry relative="1" as="geometry">
                        <mxPoint x="350" y="200" as="targetPoint"/>
                    </mxGeometry>
                </mxCell>
                <mxCell id="6Gc_-QKsgriGWGeuzHfJ-1" value="inicio" style="ellipse;whiteSpace=wrap;html=1;" parent="1" vertex="1">
                    <mxGeometry x="310" y="50" width="80" height="80" as="geometry"/>
                </mxCell>
                <mxCell id="6Gc_-QKsgriGWGeuzHfJ-4" style="edgeStyle=orthogonalEdgeStyle;rounded=0;orthogonalLoop=1;jettySize=auto;html=1;exitX=1;exitY=0.5;exitDx=0;exitDy=0;" parent="1" source="6Gc_-QKsgriGWGeuzHfJ-3" edge="1">
                    <mxGeometry relative="1" as="geometry">
                        <mxPoint x="560" y="320" as="targetPoint"/>
                    </mxGeometry>
                </mxCell>
                <mxCell id="6Gc_-QKsgriGWGeuzHfJ-5" style="edgeStyle=orthogonalEdgeStyle;rounded=0;orthogonalLoop=1;jettySize=auto;html=1;exitX=0;exitY=0.5;exitDx=0;exitDy=0;" parent="1" source="6Gc_-QKsgriGWGeuzHfJ-3" edge="1">
                    <mxGeometry relative="1" as="geometry">
                        <mxPoint x="140" y="400" as="targetPoint"/>
                    </mxGeometry>
                </mxCell>
                <mxCell id="6Gc_-QKsgriGWGeuzHfJ-3" value="comprobar si data_base contiene la fecha" style="rhombus;whiteSpace=wrap;html=1;" parent="1" vertex="1">
                    <mxGeometry x="280" y="170" width="140" height="80" as="geometry"/>
                </mxCell>
                <mxCell id="6Gc_-QKsgriGWGeuzHfJ-6" value="no" style="text;html=1;align=center;verticalAlign=middle;resizable=0;points=[];autosize=1;strokeColor=none;fillColor=none;" parent="1" vertex="1">
                    <mxGeometry x="170" y="228" width="40" height="30" as="geometry"/>
                </mxCell>
                <mxCell id="6Gc_-QKsgriGWGeuzHfJ-7" value="si" style="text;html=1;align=center;verticalAlign=middle;resizable=0;points=[];autosize=1;strokeColor=none;fillColor=none;" parent="1" vertex="1">
                    <mxGeometry x="445" y="178" width="30" height="30" as="geometry"/>
                </mxCell>
                <mxCell id="6Gc_-QKsgriGWGeuzHfJ-21" style="edgeStyle=orthogonalEdgeStyle;rounded=0;orthogonalLoop=1;jettySize=auto;html=1;exitX=0.5;exitY=1;exitDx=0;exitDy=0;" parent="1" source="6Gc_-QKsgriGWGeuzHfJ-8" edge="1">
                    <mxGeometry relative="1" as="geometry">
                        <mxPoint x="140" y="520" as="targetPoint"/>
                    </mxGeometry>
                </mxCell>
                <mxCell id="6Gc_-QKsgriGWGeuzHfJ-8" value="imprimir 'no hay eventos para esta fecha'" style="whiteSpace=wrap;html=1;" parent="1" vertex="1">
                    <mxGeometry x="80" y="400" width="120" height="60" as="geometry"/>
                </mxCell>
                <mxCell id="6Gc_-QKsgriGWGeuzHfJ-10" style="edgeStyle=orthogonalEdgeStyle;rounded=0;orthogonalLoop=1;jettySize=auto;html=1;exitX=0.5;exitY=1;exitDx=0;exitDy=0;" parent="1" source="6Gc_-QKsgriGWGeuzHfJ-9" edge="1">
                    <mxGeometry relative="1" as="geometry">
                        <mxPoint x="560" y="440" as="targetPoint"/>
                    </mxGeometry>
                </mxCell>
                <mxCell id="6Gc_-QKsgriGWGeuzHfJ-9" value="recorrer cada evento en eventos" style="whiteSpace=wrap;html=1;" parent="1" vertex="1">
                    <mxGeometry x="500" y="320" width="120" height="60" as="geometry"/>
                </mxCell>
                <mxCell id="6Gc_-QKsgriGWGeuzHfJ-12" style="edgeStyle=orthogonalEdgeStyle;rounded=0;orthogonalLoop=1;jettySize=auto;html=1;exitX=0.5;exitY=1;exitDx=0;exitDy=0;" parent="1" source="6Gc_-QKsgriGWGeuzHfJ-11" edge="1">
                    <mxGeometry relative="1" as="geometry">
                        <mxPoint x="560" y="550" as="targetPoint"/>
                    </mxGeometry>
                </mxCell>
                <mxCell id="6Gc_-QKsgriGWGeuzHfJ-11" value="imprimir el evento" style="whiteSpace=wrap;html=1;" parent="1" vertex="1">
                    <mxGeometry x="500" y="440" width="120" height="60" as="geometry"/>
                </mxCell>
                <mxCell id="6Gc_-QKsgriGWGeuzHfJ-14" style="edgeStyle=orthogonalEdgeStyle;rounded=0;orthogonalLoop=1;jettySize=auto;html=1;exitX=0;exitY=0.5;exitDx=0;exitDy=0;entryX=1.03;entryY=0.587;entryDx=0;entryDy=0;entryPerimeter=0;" parent="1" source="6Gc_-QKsgriGWGeuzHfJ-13" edge="1" target="6Gc_-QKsgriGWGeuzHfJ-22">
                    <mxGeometry relative="1" as="geometry">
                        <mxPoint x="360" y="680" as="targetPoint"/>
                    </mxGeometry>
                </mxCell>
                <mxCell id="6Gc_-QKsgriGWGeuzHfJ-15" style="edgeStyle=orthogonalEdgeStyle;rounded=0;orthogonalLoop=1;jettySize=auto;html=1;exitX=1;exitY=0.5;exitDx=0;exitDy=0;" parent="1" source="6Gc_-QKsgriGWGeuzHfJ-13" edge="1">
                    <mxGeometry relative="1" as="geometry">
                        <mxPoint x="740" y="210" as="targetPoint"/>
                    </mxGeometry>
                </mxCell>
                <mxCell id="6Gc_-QKsgriGWGeuzHfJ-13" value="mas eventos?" style="rhombus;whiteSpace=wrap;html=1;" parent="1" vertex="1">
                    <mxGeometry x="450" y="550" width="220" height="80" as="geometry"/>
                </mxCell>
                <mxCell id="6Gc_-QKsgriGWGeuzHfJ-17" value="si" style="text;html=1;align=center;verticalAlign=middle;resizable=0;points=[];autosize=1;strokeColor=none;fillColor=none;" parent="1" vertex="1">
                    <mxGeometry x="740" y="530" width="30" height="30" as="geometry"/>
                </mxCell>
                <mxCell id="6Gc_-QKsgriGWGeuzHfJ-19" value="no" style="text;html=1;align=center;verticalAlign=middle;resizable=0;points=[];autosize=1;strokeColor=none;fillColor=none;" parent="1" vertex="1">
                    <mxGeometry x="385" y="550" width="40" height="30" as="geometry"/>
                </mxCell>
                <mxCell id="6Gc_-QKsgriGWGeuzHfJ-22" value="fin" style="ellipse;whiteSpace=wrap;html=1;" parent="1" vertex="1">
                    <mxGeometry x="80" y="520" width="120" height="120" as="geometry"/>
                </mxCell>
                <mxCell id="2" value="" style="edgeStyle=none;orthogonalLoop=1;jettySize=auto;html=1;" edge="1" parent="1">
                    <mxGeometry width="100" relative="1" as="geometry">
                        <mxPoint x="740" y="210" as="sourcePoint"/>
                        <mxPoint x="560" y="210" as="targetPoint"/>
                        <Array as="points"/>
                    </mxGeometry>
                </mxCell>
            </root>
        </mxGraphModel>
    </diagram>
</mxfile>